<svg width="20" height="20" viewBox="0 0 20 20" fill="none" xmlns="http://www.w3.org/2000/svg">
<path fill-rule="evenodd" clip-rule="evenodd" d="M10 20C15.5228 20 20 15.5228 20 10C20 4.47715 15.5228 0 10 0C4.47715 0 0 4.47715 0 10C0 15.5228 4.47715 20 10 20ZM5.29261 11.7025L7.88261 14.2925C8.27261 14.6825 8.91261 14.6825 9.29261 14.2925L15.8826 7.7025C16.2726 7.3125 16.2726 6.6825 15.8826 6.2925C15.4926 5.9025 14.8626 5.9025 14.4726 6.2925L8.59261 12.1725L6.70261 10.2925C6.31261 9.9025 5.68261 9.9025 5.29261 10.2925C5.10535 10.4793 5.00012 10.733 5.00012 10.9975C5.00012 11.262 5.10535 11.5157 5.29261 11.7025Z" fill="#58ED24"/>
</svg>
