<svg width="20" height="20" viewBox="0 0 20 20" fill="none" xmlns="http://www.w3.org/2000/svg">
<path fill-rule="evenodd" clip-rule="evenodd" d="M10 20C15.5228 20 20 15.5228 20 10C20 4.47715 15.5228 0 10 0C4.47715 0 0 4.47715 0 10C0 15.5228 4.47715 20 10 20ZM9.09986 15H10.7275V7.75285H9.09986V15ZM9.23382 5.24782C9.07753 5.41304 8.99939 5.62067 8.99939 5.87073C8.99939 6.11632 9.07753 6.32172 9.23382 6.48694C9.39457 6.64769 9.6223 6.72806 9.91701 6.72806C10.2117 6.72806 10.4394 6.64769 10.6002 6.48694C10.7609 6.32172 10.8413 6.11632 10.8413 5.87073C10.8413 5.62067 10.7609 5.41304 10.6002 5.24782C10.4394 5.08261 10.2117 5 9.91701 5C9.6223 5 9.39457 5.08261 9.23382 5.24782Z" fill="#24A0ED"/>
</svg>
